<svg width="16" height="17" viewBox="0 0 16 17" fill="none" xmlns="http://www.w3.org/2000/svg">
<path fill-rule="evenodd" clip-rule="evenodd" d="M10 9.16667H8.66667V10.5C8.66667 10.8667 8.36667 11.1667 8 11.1667C7.63333 11.1667 7.33333 10.8667 7.33333 10.5V9.16667H6C5.63333 9.16667 5.33333 8.86667 5.33333 8.5C5.33333 8.13333 5.63333 7.83333 6 7.83333H7.33333V6.5C7.33333 6.13333 7.63333 5.83333 8 5.83333C8.36667 5.83333 8.66667 6.13333 8.66667 6.5V7.83333H10C10.3667 7.83333 10.6667 8.13333 10.6667 8.5C10.6667 8.86667 10.3667 9.16667 10 9.16667M12 2.5H4C2.89733 2.5 2 3.39733 2 4.5V12.5C2 13.6027 2.89733 14.5 4 14.5H12C13.1027 14.5 14 13.6027 14 12.5V4.5C14 3.39733 13.1027 2.5 12 2.5" fill="#3176DE"/>
<mask id="mask0" mask-type="alpha" maskUnits="userSpaceOnUse" x="2" y="2" width="12" height="13">
<path fill-rule="evenodd" clip-rule="evenodd" d="M10 9.16667H8.66667V10.5C8.66667 10.8667 8.36667 11.1667 8 11.1667C7.63333 11.1667 7.33333 10.8667 7.33333 10.5V9.16667H6C5.63333 9.16667 5.33333 8.86667 5.33333 8.5C5.33333 8.13333 5.63333 7.83333 6 7.83333H7.33333V6.5C7.33333 6.13333 7.63333 5.83333 8 5.83333C8.36667 5.83333 8.66667 6.13333 8.66667 6.5V7.83333H10C10.3667 7.83333 10.6667 8.13333 10.6667 8.5C10.6667 8.86667 10.3667 9.16667 10 9.16667M12 2.5H4C2.89733 2.5 2 3.39733 2 4.5V12.5C2 13.6027 2.89733 14.5 4 14.5H12C13.1027 14.5 14 13.6027 14 12.5V4.5C14 3.39733 13.1027 2.5 12 2.5" fill="white"/>
</mask>
<g mask="url(#mask0)">
</g>
</svg>
